<svg width="24" height="24" viewBox="0 0 24 24" fill="none" xmlns="http://www.w3.org/2000/svg">
<path d="M20.5388 10C20.5388 17 11.7365 23 11.7365 23C11.7365 23 2.93412 17 2.93412 10C2.93412 7.61305 3.86151 5.32387 5.51227 3.63604C7.16303 1.94821 9.40195 1 11.7365 1C14.071 1 16.3099 1.94821 17.9607 3.63604C19.6115 5.32387 20.5388 7.61305 20.5388 10Z" stroke="#311D3F" stroke-width="2" stroke-linecap="round" stroke-linejoin="round"/>
<path d="M11.7365 13C13.357 13 14.6706 11.6569 14.6706 10C14.6706 8.34315 13.357 7 11.7365 7C10.116 7 8.80236 8.34315 8.80236 10C8.80236 11.6569 10.116 13 11.7365 13Z" stroke="#311D3F" stroke-width="2" stroke-linecap="round" stroke-linejoin="round"/>
</svg>
